# xmcd CD database file
#
# Track frame offsets:
#	150
#	13725
#	35240
#	47727
#	79997
#	96440
#	115947
#	126815
#	142045
#	166405
#	182320
#	195820
#
# Disc length: 3564 seconds
#
# Revision: 0
# Processed by: cddbd v1.4PL0 Copyright (c) Steve Scherf et al.
# Submitted via: CDex 1.50
#
DISCID=a00dea0c
DTITLE=The Jack Brothers  - Coltrane King
DYEAR=1996
DGENRE=Jazz
TTITLE0=Impression
TTITLE1=Blue Train
TTITLE2=Alabama
TTITLE3=Aknowledgement
TTITLE4=India
TTITLE5=Africa
TTITLE6=Naima
TTITLE7=Resolution
TTITLE8=Central Park West Spiritual
TTITLE9=Village Blues
TTITLE10=The Father And The Son And The Holy Ghost
TTITLE11=Blues Minor
EXTD=YEAR: 1996
EXTT0=
EXTT1=
EXTT2=
EXTT3=
EXTT4=
EXTT5=
EXTT6=
EXTT7=
EXTT8=
EXTT9=
EXTT10=
EXTT11=
PLAYORDER=
